<?xml version="1.0" encoding="utf-8" ?><svg xmlns="http://www.w3.org/2000/svg" xmlns:xlink="http://www.w3.org/1999/xlink" width="1024" height="1024" viewBox="0 0 1024 1024"><path d="M503.944 171.12C520.539 169.337 538.09 181.102 550.667 190.868C608.54 235.804 644.09 302.794 670.151 369.883C672.136 374.994 675.22 380.811 673.12 386.282C671.933 387.398 672.617 387.112 671.013 387.198C665.305 384.907 659.902 371.956 656.62 366.162C649.462 353.487 641.997 340.988 634.231 328.676C609.849 290.678 576.945 248.949 540.928 221.358C534.204 216.404 527.044 211.261 518.856 209.218C511.01 207.26 505.602 216.241 501.968 222.06C483.262 252.014 475.581 285.325 469.301 319.568C472.011 324.863 472.051 325.75 472.011 331.576C485.222 337.133 498.537 344.605 511.522 350.78C552.963 370.488 586.693 384.275 615.479 421.568C638.381 419.953 667.058 427.495 684.899 442.805C688.116 445.566 693.035 453.536 695.555 457.273C707.339 459.498 717.232 461.833 727.469 468.488C743.733 479.061 755.915 487.271 760.825 506.444C771.613 510.823 783.854 521.723 791.358 530.426C799.982 540.43 803.116 545.343 802.268 558.517C811.202 568.679 820.451 584.166 825.412 596.836C829.127 606.327 829.117 613.719 824.896 622.971C825.706 624.722 826.436 626.51 827.082 628.328C831.569 640.946 833.586 653.117 827.694 665.508C832.267 685.603 830.5 699.524 817.037 715.482C817.432 730.948 810.888 741.466 799.157 750.706C810.01 772.271 825.523 825.538 808.556 847.523C802.179 855.786 783.663 860.163 773.534 860.947C760.241 861.977 753.745 858.188 743.93 849.598C721.479 858.078 695.701 862.112 674.441 846.825C667.307 841.695 665.716 834.049 664.936 825.826C648.688 821.377 632.927 814.538 626.549 797.214C622.468 786.128 628.666 777.452 636.834 770.488C656.009 754.137 679.439 742.544 703.33 734.796C703.559 725.472 705.04 722.784 708.977 714.487C708.624 713.709 708.286 712.924 707.965 712.132C704.876 704.377 706.473 697.955 709.645 690.763C708.013 688.744 706.268 686.254 704.709 684.131C701.203 695.871 699.013 711.224 690.602 720.956C687.187 724.71 680.237 724.505 678.343 719.425C675.134 710.819 676.389 699.111 676.599 689.912C671.47 700.363 664.887 713.798 655.705 721.125C652.66 723.554 646.073 723.581 644.908 719.573C640.904 705.807 649.476 684.203 653.647 671.027C643.837 686.774 637.13 707.499 621.381 718.907C609.003 727.874 608.397 713.308 610.129 704.85C614.065 685.632 621.517 666.108 629.502 648.18C626.073 642.754 621.78 637.407 618.162 631.628C613.788 624.644 607.947 612.577 603.112 606.522C607.762 619.713 616.909 635.682 616.616 650.121C616.088 659.057 610.764 667.299 607.316 675.128C601.779 687.698 592.365 697.31 585.77 708.904C590.055 725.13 588.946 734.115 583.065 749.672C569.877 784.769 547.157 815.346 517.913 838.66C491.52 859.7 460.748 874.035 426.378 873.82C399.654 873.653 371.246 863.782 352.224 844.535C345.271 837.499 338.804 827.925 338.973 817.625C339.092 811.878 342.351 810.665 347.395 811.015L348.122 811.071C360.779 813.186 375.65 812.419 383.625 800.238C385.45 797.451 386.524 793.939 388.687 791.194C392.357 786.539 399.734 789.721 404.788 788.71C423.577 785.962 411.007 773.212 420.585 765.306C424.653 761.948 435.179 763.522 439.01 758.19C440.627 755.939 441.656 751.292 441.271 748.719C440.686 748.311 439.635 747.571 439.014 747.412C421.89 743.03 421.431 755.227 410.625 761.196C407.175 763.102 398.56 757.45 391.517 761.818C381.644 767.94 379.421 777.893 370.964 783.161C369.888 783.672 367.474 783.682 366.636 782.907C352.823 770.132 363.779 735.423 369.745 723.278C380.158 702.078 402 685.273 423.037 678.472C415.433 661.08 412.939 651.904 409.804 633.453L405.679 636.53C405.934 641.295 405.571 701.617 391.399 689.136C381.158 680.117 376.706 642.404 379.577 628.627C380.864 622.449 403.451 599.733 409.325 593.434C404.164 592.082 401.841 591.121 397.154 588.721C384.848 598.65 374.863 608.198 363.148 618.024C361.584 632.039 355.844 640.243 346.132 650.111C348.414 659.652 348.426 664.638 345.452 673.879C357.369 710.147 335.673 748.706 304.172 767.336C297.658 771.188 272.059 782.966 264.37 772.388C261.412 768.319 270.316 760.59 273.137 757.577C277.758 752.639 282.406 745.758 281.238 738.296C279.873 730.358 280.354 727.875 283.108 720.242C281.182 717.422 277.404 713.329 275.072 710.652C271.985 710.734 260.725 711.536 260.422 714.529C258.797 730.623 248.542 725.277 240.092 733.302C235.865 737.317 242.16 744.556 241.932 749.104C241.73 753.111 239.054 756.634 237.416 760.271C232.286 770.675 238.09 780.611 240.501 790.733C241.627 795.934 237.927 799.552 232.957 799.147C192.071 795.812 164.44 751.448 165.626 713.181C166.807 675.042 185.554 640.467 211.993 614.061C223.498 602.571 240.614 590.224 256.444 586.474C259.047 585.957 263.559 586.061 266.304 586.09C276.763 564.655 303.181 565.5 322.935 570.384C331.344 565.534 338.851 565.356 347.926 561.088C347.222 560.498 346.529 559.894 345.85 559.275C324.405 540.155 307.722 516.289 297.132 489.581C293.694 481.046 290.759 473.108 290.256 463.858C278.86 452.002 273.767 446.183 272.942 429.261C271.257 394.668 292.409 367.933 327.529 366.826C332.95 356.543 346.313 346.643 356.764 341.868C349.05 327.805 351.595 325.459 366.549 324.405C365.844 317.61 365.838 309.754 365.298 302.875C363.401 278.696 360.566 237.152 350.434 215.184C342.516 219.989 331.794 232.131 325.928 239.48C293.436 280.189 269.639 328.576 253.166 377.806C251.884 381.636 250.173 386.054 245.271 384.364C244.727 383.86 244.241 383.405 243.962 382.696C240.347 373.491 262.385 306.759 267.193 294.973C282.018 258.635 316.784 191.974 354.608 176.962C358.18 175.544 362.003 175.087 365.556 176.828C383.911 185.823 389.026 271.731 391.144 292.566C392.004 301.021 392.515 314.299 395.578 321.853C396.291 323.612 397.293 324.254 399.043 324.854C400.309 325.289 401.003 325.249 402.2 324.728C404.477 320.628 398.269 309.5 402.483 306.426C410.242 300.767 430.673 316.534 435.321 320.908C437.704 316.672 442.441 295.246 444.16 288.826C447.559 275.796 451.545 262.926 456.106 250.256C464.126 228.467 482.616 180.959 503.944 171.12ZM484.963 604.452C480.58 615.119 474.451 624.461 468.267 634.163C468.996 640.474 469.937 650.205 471.345 656.312L471.772 656.916C474.841 656.242 477.207 655.169 480.2 654.296C485.888 652.637 490.713 652.2 496.592 651.976C498.7 639.555 503.62 637.41 510.862 628.335C513.86 624.578 517.55 607.098 515.717 603.069L514.639 603.244C505.226 604.395 494.496 604.334 484.963 604.452ZM436.221 635.189C438.016 648.68 439.084 660.024 438.938 673.548C440.224 673.34 444.323 672.586 445.386 672.619C448.874 672.213 451.992 672.461 452.676 668.245C448.296 657.327 443.057 648.693 442.543 635.995C442.384 632.057 444.55 628.424 444.157 625.917C441.261 629.011 438.902 631.897 436.221 635.189Z"/><path fill="#E0412C" d="M409.763 315.116C414.839 317.989 427.799 324.816 430.833 329.094C431.06 330.666 430.975 330.71 430.709 332.308C430.308 345.512 437.928 352.184 450.464 353.975C457.151 353.133 459.52 352.71 464.752 348.396C467.174 345.535 468.06 344.271 470.035 341.074C486.672 348.337 502.243 357.158 518.023 364.063C520.897 365.297 522.746 366.155 525.493 367.66C530.535 369.782 557.154 382.576 560.108 385.109C573.737 392.179 597.963 410.795 605.454 423.372C629.694 459.709 645.56 502.912 623.694 544.843C619.51 552.868 614.984 558.871 608.124 564.792C597.212 573.976 587.325 580.402 573.673 584.64C572.968 575.743 570.473 569.994 563.633 563.821C541.727 544.049 507.104 568.492 511.477 595.116C506.857 595.518 502.711 595.676 498.059 595.447C442.38 595.616 385.335 587.303 344.708 545.424C340.2 540.777 335.346 536.245 331.357 531.129C320.56 520.422 310.471 497.507 304.618 483.453C302.637 478.92 301.124 474.373 299.734 469.633C316.504 473.93 323.01 476.507 340.961 471.057C345.976 469.263 351.552 466.68 356.632 464.673C354.626 467.079 353.834 467.992 351.452 470.094C348.43 473.54 335.937 479.82 337.237 483.777C347.158 488.503 366.39 468.796 369.201 459.578C371.28 455.822 371.368 448.617 372.937 445.17C385.896 416.704 379.468 383.215 348.037 370.024L338.298 367.072C347.178 356.994 352.955 352.118 365.895 348.624C367.58 348.09 368.305 347.457 369.137 346.123C369.305 343.856 368.186 342.07 367.22 339.919C365.849 338.441 363.763 335.452 362.484 333.737C370.714 332.435 378.75 334.026 387.283 334.502C391.06 334.556 394.838 334.585 398.616 334.588C403.185 334.572 410.449 335.024 413.707 331.74C414.552 329.912 414.471 329.989 414.138 327.95C412.058 323.935 410.927 319.481 409.763 315.116Z"/><path fill="#E67045" d="M498.059 595.447C488.307 594.54 467.177 574.653 462.029 566.071C457.297 558.181 453.823 547.175 455.736 537.906C458.616 523.952 467.958 515.626 482.25 515.505C506.762 515.599 516.769 543.442 538.352 549.319C552.309 553.12 564.21 539.504 574.662 532.758C586.64 524.947 602.076 524.785 610.45 537.944C613.85 543.286 612.856 552.745 610.683 558.359C609.796 560.652 608.807 562.057 608.124 564.792C597.212 573.976 587.325 580.402 573.673 584.64C572.968 575.743 570.473 569.994 563.633 563.821C541.727 544.049 507.104 568.492 511.477 595.116C506.857 595.518 502.711 595.676 498.059 595.447Z"/><path fill="#EAA280" d="M518.023 364.063C520.897 365.297 522.746 366.155 525.493 367.66C528.392 370.579 534.584 377.364 530.841 381.358C523.903 388.761 500.23 377.527 509.585 366.496C511.481 364.26 515.325 364.173 518.023 364.063Z"/><path fill="#E67045" d="M560.108 385.109C573.737 392.179 597.963 410.795 605.454 423.372C599.379 426.406 558.06 391.644 560.108 385.109Z"/><path fill="#E67045" d="M304.618 483.453C307.697 482.678 309.06 483.947 311.894 485.559C316.968 493.756 333.492 521.124 332.354 530.184L331.357 531.129C320.56 520.422 310.471 497.507 304.618 483.453Z"/><path fill="#E67045" d="M338.298 367.072C347.178 356.994 352.955 352.118 365.895 348.624C363.363 354.257 353.037 365.809 348.037 370.024L338.298 367.072Z"/><path fill="#E67045" d="M362.484 333.737C370.714 332.435 378.75 334.026 387.283 334.502C391.482 346.94 375.4 344.455 368.384 340.58C367.994 340.364 367.606 340.143 367.22 339.919C365.849 338.441 363.763 335.452 362.484 333.737Z"/><path fill="#E67045" d="M409.763 315.116C414.839 317.989 427.799 324.816 430.833 329.094C431.06 330.666 430.975 330.71 430.709 332.308C425.016 330.41 419.973 329.301 414.138 327.95C412.058 323.935 410.927 319.481 409.763 315.116Z"/><path fill="#E67045" d="M450.464 353.975C457.151 353.133 459.52 352.71 464.752 348.396C465.193 351.948 466.073 355.97 463.545 358.834C458.067 365.038 452.263 359.916 450.464 353.975Z"/><path fill="#CF4C39" d="M340.961 471.057C345.976 469.263 351.552 466.68 356.632 464.673C354.626 467.079 353.834 467.992 351.452 470.094C348.385 471.025 344.363 474.285 341.66 473.708C341.439 472.615 341.468 473.014 341.631 471.906L340.961 471.057Z"/><path d="M445.317 369.157C466.414 367.329 491.72 374.147 503.803 392.863C513.882 408.475 512.416 426.24 508.91 443.619C514.299 450.826 512.454 454.029 510.71 462.278C509.248 469.192 496.741 485.627 489.224 483.004C487.899 480.319 493.092 475.26 494.899 473.36C500.202 467.785 502.575 462.585 504.712 455.277C484.89 474.431 475.675 479.753 447.165 479.467C430.976 478.188 423.078 474.29 409.415 465.433C419.545 483.52 439.63 486.139 442.422 490.33L441.987 491.165C434.426 495.633 423.644 488.916 416.988 484.933C411.717 481.779 400.782 469.183 400.93 462.784C401.785 451.78 393.573 445.979 392.096 435.479C386.846 398.139 410.445 374.678 445.317 369.157Z"/><path fill="#FDFDFD" d="M399.958 421.575C411.618 421.396 423.728 421.671 435.442 421.766C435.37 427.934 435.291 432.793 438.475 438.463C441.246 443.415 445.893 447.042 451.368 448.528C456.993 449.993 462.974 449.037 467.864 445.894C476.022 440.702 477.477 434.137 479.258 425.546C486.598 426.632 495.636 428.702 502.857 430.447C502.06 434.886 500.496 439.94 499.038 444.199C485.354 475.935 435.647 478.786 413.096 455.662C402.756 445.058 400.191 436.041 399.958 421.575Z"/><path fill="#E67045" d="M411.173 395.101C423.603 380.328 441.627 376.663 460.189 378.048L465.667 379.273C489.342 384.935 501.82 396.541 503.114 421.126C491.566 418.665 477.445 415.569 465.798 414.288C444.998 411.998 422.313 412.257 401.427 413.033C404.289 405.583 406.04 401.23 411.173 395.101Z"/><path fill="#EAA280" d="M411.173 395.101C423.603 380.328 441.627 376.663 460.189 378.048C460.793 379.711 461.588 381.668 461.898 383.366C459.315 388.271 458.517 390.531 452.82 391.886C441.74 394.52 430.377 395.397 419.338 398.763C415.689 399.876 413.792 397.448 411.173 395.101Z"/><path fill="#E67045" d="M460.189 378.048L465.667 379.273C464.705 380.971 463.818 382.613 461.898 383.366C461.588 381.668 460.793 379.711 460.189 378.048Z"/><path d="M356.538 510.12C351.24 512.385 344.978 523.734 339.35 521.357C337.141 517.723 339.904 512.59 342.45 509.936C362.293 489.242 395.031 496.771 414.119 514.544C416.472 516.735 418.632 518.514 418.849 521.761C416.674 528.716 407.35 520.786 404.225 518.465C395.403 511.915 388.765 508.682 378.107 506.736C375.19 508.486 363.44 508.89 358.643 509.748C357.94 509.867 357.239 509.991 356.538 510.12Z"/><path fill="#CF4C39" d="M356.538 510.12C361.865 505.658 371.573 506.125 378.107 506.736C375.19 508.486 363.44 508.89 358.643 509.748C357.94 509.867 357.239 509.991 356.538 510.12Z"/><path d="M545.438 409.046C557.309 413.657 552.176 442.162 549.336 451.566C543.52 470.824 534.806 484.158 517.009 493.98C515.306 494.754 514.224 495.398 512.466 494.565L512.306 493.472C514.571 488.825 521.745 484.364 525.521 480.591C539.131 466.991 546.503 446.807 546.575 427.712C546.598 421.607 545.192 415.853 545.408 409.746L545.438 409.046Z"/><path d="M364.309 531.747C362.135 529.979 359.745 527.429 359.529 524.506C363.159 518.991 381.809 529.106 386.093 531.306C390.733 535.473 388.277 538.6 384 541.427C375.328 542.005 367.401 541.438 364.309 531.747Z"/><path fill="#B33921" d="M386.093 531.306C390.733 535.473 388.277 538.6 384 541.427C375.328 542.005 367.401 541.438 364.309 531.747C371.947 534.974 379.087 536.94 386.093 531.306Z"/><path fill="#B33921" d="M596.425 460.8C597.272 460.977 598.213 461.173 599.035 461.428C600.554 461.897 601.815 462.965 602.527 464.386C604.281 467.882 602.264 472.811 600.995 476.186C590.885 475.674 594.533 467.395 596.425 460.8Z"/><path fill="#B33921" d="M585.877 434.973C595.698 433.697 594.657 442.869 592.297 449.286C584.428 450.844 584.842 439.752 585.877 434.973Z"/><path fill="#B33921" d="M564.537 426.205C571.212 429.673 572.46 435.35 567.419 441.168C565.718 441.436 565.689 441.427 563.968 441.274C559.612 438.465 562.285 429.672 564.537 426.205Z"/><path fill="#B33921" d="M407.738 555.199L414.814 555.346C416.33 556.447 417.603 557.096 418.366 558.763C418.568 560.584 417.868 561.378 416.958 562.998C415.91 563.769 413.862 564.049 412.578 563.87C407.164 563.113 407.482 558.756 407.738 555.199Z"/><path fill="#B33921" d="M402.794 568.528C406.686 568.377 412.164 569.998 411.561 574.779C410.534 576.36 410.394 576.269 408.711 577.023L407.727 577.037C404.142 577.064 399.755 574.674 400.033 570.705C401.226 568.909 400.663 569.505 402.794 568.528Z"/><path fill="#B33921" d="M401.598 357.637C407.535 357.112 412.911 358.244 408.92 365.457C405.044 365.558 401.269 365.678 400.055 361.313C400.393 359.452 400.343 359.1 401.598 357.637Z"/><path fill="#B33921" d="M386.159 349.562C389.14 350.465 389.39 353.83 387.912 356.141C386.559 358.256 385.125 358.198 382.802 358.683C380.758 357.579 379.786 356.753 379.286 354.388C379.797 350.662 383.102 350.101 386.159 349.562Z"/><path fill="#B33921" d="M384.625 555.901C388.039 555.669 392.125 556.447 392.529 560.469C392.696 562.134 391.037 563.482 390.04 564.672L389.27 564.986C384.476 564.302 381.703 560.043 384.625 555.901Z"/><path fill="#B33921" d="M550.363 481.63C553.3 481.834 557.123 481.598 559.014 483.66C559.778 485.63 559.278 486.96 558.88 489.117C555.704 489.539 553.317 490.264 550.866 488.101C549.911 486.069 550.272 483.954 550.363 481.63Z"/><path fill="#B33921" d="M573.302 454.954C579.83 455.027 582.729 457.97 578.135 463.708C575.392 464.451 574.399 465.264 572.41 463.088C571.586 460.552 572.595 457.515 573.302 454.954Z"/><path fill="#B33921" d="M527.344 500.623C532.079 500.388 538.276 503.89 533.445 507.985C529.98 508.117 524.261 507.952 524.244 503.062C525.2 501.127 525.621 501.225 527.344 500.623Z"/><path fill="#B33921" d="M372.48 366.22C379.028 366.391 379.996 371.652 374.384 374.34C370.245 374.006 367.633 371.898 368.763 367.55C370.216 366.062 369.848 366.537 372.48 366.22Z"/><path fill="#B33921" d="M503.525 507.722C506.809 507.411 509.179 506.768 511.192 509.661C511.59 512.012 511.171 512.774 510.509 515.158C504.159 516.134 500.872 515.638 503.525 507.722Z"/><path fill="#CF4C39" d="M550.551 458.713L551.467 459.382C552.085 460.942 551.543 462.897 551.264 464.639L550.734 464.662C550.128 462.966 550.453 460.583 550.551 458.713Z"/><path fill="#E0412C" d="M495.161 660.265C512.555 657.448 528.381 663.667 543.216 672.067C567.361 685.739 585.211 709.726 577.852 738.376C555.377 810.381 475.157 885.638 394.681 860.12C382.003 856.1 365.504 847.157 356.543 837.134C351.41 831.764 349.06 826.465 347.382 819.384C360.309 822.582 374.484 820.961 384.798 811.967C389.759 807.641 391.94 803.251 394.99 797.553C407.103 799.212 420.724 795.983 424.433 782.529C425.337 779.248 425.107 776.097 425.093 772.703C431.349 771.393 437.959 770.348 442.941 766.084C454.619 756.086 447.364 741.003 445.091 728.545C443.91 722.314 443.647 715.943 444.311 709.636C447.09 678.957 465.48 663.824 495.161 660.265Z"/><path fill="#E67045" d="M356.543 837.134C357.264 836.506 357.451 836.467 358.289 835.988C360.651 836.167 362.086 837.477 364.468 838.453C374.596 842.602 382.594 845.414 393.483 847.053C406.142 848.958 413.797 847.672 425.823 846.721C448.911 844.711 476.845 837.148 496.601 823.793C519.42 808.366 546.112 784.148 561.961 761.047C564.855 756.829 573.796 738.712 577.022 737.388L577.852 738.376C555.377 810.381 475.157 885.638 394.681 860.12C382.003 856.1 365.504 847.157 356.543 837.134Z"/><defs><linearGradient id="gradient_0" gradientUnits="userSpaceOnUse" x1="473.10599" y1="686.72852" x2="459.67361" y2="675.07147"><stop offset="0" stop-color="#D8644F"/><stop offset="1" stop-color="#E48153"/></linearGradient></defs><path fill="url(#gradient_0)" d="M444.311 709.636C447.09 678.957 465.48 663.824 495.161 660.265L495.316 661.37C489.655 664.594 478.15 666.729 472.911 670.977C465.768 676.767 459 684.376 453.757 691.938C450.078 697.242 448.474 706.196 444.311 709.636Z"/><path fill="#E67045" d="M556.153 707.552C557.855 707.608 561.772 708.042 563.017 709.035C573.46 717.368 558.303 745.712 553.618 753.337C534.439 784.554 504.18 816.498 467.923 825.845C466.771 826.026 465.605 826.088 464.441 826.03C457.681 825.693 457.834 819.89 458.026 814.825C463.164 809.092 474.087 805.615 480.835 801.447C508.856 784.141 529.676 756.624 542.535 726.613C545.504 719.684 548.719 710.469 556.153 707.552Z"/><path fill="#B33921" d="M472.751 695.992C481.056 696.048 482.308 701.703 476.084 706.498C467.56 707.037 466.746 698.955 472.751 695.992Z"/><path fill="#B33921" d="M496.988 676.977C505.022 677.374 504.29 684.126 498.059 687.639C490.198 687.263 489.773 680.592 496.988 676.977Z"/><path fill="#B33921" d="M472.427 676.916C474.655 677.099 475.343 677.022 477.026 678.359C478.913 681.955 477.148 683.607 474.613 686.205C466.538 686.388 467.503 680.914 472.427 676.916Z"/><path fill="#B33921" d="M495.832 699.96C503.419 699.534 504.12 705.019 498.744 708.306C496.792 708.682 496.163 709.002 494.373 708.156C491.781 705.189 493.948 702.662 495.832 699.96Z"/><path fill="#E0412C" d="M193.168 767.804C191.305 765.349 189.696 763.134 188.042 760.522C175.293 740.576 171.123 716.332 176.475 693.273C184.254 658.913 209.65 622.146 239.516 603.415C253.03 594.939 261.314 592.569 276.648 596.115C302.732 601.554 327.717 622.566 336.601 648.032C339.026 654.982 339.237 660.413 338.815 667.705C333.577 665.026 328.913 662.545 323.029 661.504C302.107 657.803 273.546 670.881 270.893 694.009C270.975 696.795 271.016 699.583 271.015 702.37C258.315 703.196 253.347 706.437 249.905 718.927C233.93 723.621 223.782 731.958 233.448 749.221C226.507 761.777 225.506 767.956 228.691 782.141C229.693 784.416 231.112 788.805 232.005 791.291C215.453 787.846 204.083 780.633 193.168 767.804Z"/><path fill="#E67045" d="M193.168 767.804C191.305 765.349 189.696 763.134 188.042 760.522C175.293 740.576 171.123 716.332 176.475 693.273C184.254 658.913 209.65 622.146 239.516 603.415C253.03 594.939 261.314 592.569 276.648 596.115C273.527 601.415 268.042 604.216 262.834 607.115C242.816 618.261 222.212 633.77 209.137 652.542C188.494 682.181 178.416 719.631 190.406 754.649C191.551 757.992 195.712 765.398 194.994 768.393C194.313 768.194 193.829 768.067 193.168 767.804Z"/><path fill="#B33921" d="M270.893 694.009C270.975 696.795 271.016 699.583 271.015 702.37C258.315 703.196 253.347 706.437 249.905 718.927C233.93 723.621 223.782 731.958 233.448 749.221C226.507 761.777 225.506 767.956 228.691 782.141C228.3 781.892 227.354 781.299 227.068 780.91C210.711 758.729 221.083 723.282 239.765 705.751C243.868 701.901 253.127 696.693 258.583 695C262.039 693.928 268.893 695.711 270.893 694.009Z"/><path fill="#B33921" d="M285.907 632.586C288.975 632.211 290.386 631.714 292.324 634.529C292.871 638.467 290.064 640.221 287.087 641.875C284.733 642.346 284.05 642.566 282.071 641.379C279.582 637.455 282.76 634.641 285.907 632.586Z"/><path fill="#B33921" d="M310.862 639.039C318.038 639.174 317.803 644.452 313.146 648.419C309.948 647.817 304.881 646.864 306.939 641.27C307.438 639.911 309.523 639.479 310.862 639.039Z"/><path fill="#B33921" d="M293.636 648.137C299.925 647.772 305.859 650.452 299.003 656.049C295.991 656.392 293.646 657.115 291.616 654.376C291.174 651.705 292.152 650.336 293.636 648.137Z"/><path fill="#B33921" d="M255.759 666.018C258.799 665.638 260.45 665.405 261.888 668.463C261.836 671.773 260.92 672.392 258.545 674.739C255.905 675.181 255.451 675.45 253.352 673.698C251.85 670.423 253.277 668.136 255.759 666.018Z"/><path fill="#B33921" d="M254.613 647.795C256.26 647.731 258.108 647.787 259.511 648.811C260.472 649.505 261.033 650.625 261.012 651.811C260.963 653.922 259.676 655.114 258.281 656.45C255.152 656.688 253.775 657.215 252.02 654.327C251.774 651.337 252.888 650.158 254.613 647.795Z"/><path fill="#E0412C" d="M620.635 430.127C640.888 431.338 668.199 436.381 682.018 452.408C696.302 468.971 698.343 504.97 694.148 525.223C690.079 543.638 687.405 554.255 679.936 572.105C676.042 581.922 667.368 591.652 658.778 597.702C648.779 591.023 645.354 589.602 635.287 597.244C625.568 584.416 618.232 581.797 607.328 595.371C601.246 592.07 598.176 591.07 595.178 584.801C615.862 571.891 620.06 568.096 633.191 547.158C637.031 539.879 638.899 532.869 640.653 524.914C647.389 494.365 640.446 472.017 628.352 444.456C625.879 439.77 623.308 434.665 620.635 430.127Z"/><path fill="#B33921" d="M595.178 584.801C615.862 571.891 620.06 568.096 633.191 547.158L633.577 547.624C641.021 556.481 642.014 553.014 644.84 567.469C654.779 569.492 660.827 569.373 670.821 569.797C672.934 569.887 676.959 571.883 679.936 572.105C676.042 581.922 667.368 591.652 658.778 597.702C648.779 591.023 645.354 589.602 635.287 597.244C625.568 584.416 618.232 581.797 607.328 595.371C601.246 592.07 598.176 591.07 595.178 584.801Z"/><path fill="#E67045" d="M620.635 430.127C640.888 431.338 668.199 436.381 682.018 452.408C696.302 468.971 698.343 504.97 694.148 525.223C683.903 519.102 685.371 500.629 686.511 490.101C686.629 483.743 686.142 482.654 684.248 476.549C682.576 472.155 680.772 469.075 676.749 466.454C661.914 456.787 643.917 452.421 628.352 444.456C625.879 439.77 623.308 434.665 620.635 430.127Z"/><path fill="#B33921" d="M686.511 490.101C673.944 494.559 675.203 479.05 678.971 476.072C681.037 475.75 682.154 476.138 684.248 476.549C686.142 482.654 686.629 483.743 686.511 490.101Z"/><path fill="#B33921" d="M654.907 473.854C657.506 472.716 660.535 473.897 661.679 476.492C662.823 479.088 661.652 482.12 659.059 483.272C656.456 484.428 653.409 483.251 652.26 480.645C651.111 478.039 652.297 474.995 654.907 473.854Z"/><path fill="#B33921" d="M657.553 491.518C665.168 491.004 667.81 495.206 663.368 501.421C656.175 501.935 653.977 497.034 657.553 491.518Z"/><defs><linearGradient id="gradient_1" gradientUnits="userSpaceOnUse" x1="668.34698" y1="576.66425" x2="752.30298" y2="524.17914"><stop offset="0" stop-color="#B63821"/><stop offset="1" stop-color="#F5432D"/></linearGradient></defs><path fill="url(#gradient_1)" d="M698.857 466.249C716.814 470.468 739.244 484.364 749.376 499.907C758.119 513.321 753.304 541.868 748.196 556.122C746.775 560.217 743.831 567.769 741.824 571.539C731.451 591.016 724.286 628.02 694.591 619.645C690.028 614.083 682.176 598.714 678.394 591.647C699.102 560.854 708.712 520.651 703.233 483.861C701.992 478.029 700.868 471.834 698.857 466.249Z"/><path fill="#E67045" d="M698.857 466.249C716.814 470.468 739.244 484.364 749.376 499.907C758.119 513.321 753.304 541.868 748.196 556.122C746.084 554.586 743.355 550.882 742.021 548.625C736.594 539.442 738.971 527.847 741.692 518.134C742.462 516.188 743.2 513.843 743.89 511.835C742.892 508.331 742.129 506.988 740.317 504.016C739.044 501.308 737.519 498.465 734.863 497.021C724.597 491.443 713.404 490.046 703.233 483.861C701.992 478.029 700.868 471.834 698.857 466.249Z"/><path fill="#B33921" d="M741.692 518.134C737.533 516.19 732.891 514.282 732.524 508.931C732.221 504.505 737.313 503.959 740.317 504.016C742.129 506.988 742.892 508.331 743.89 511.835C743.2 513.843 742.462 516.188 741.692 518.134Z"/><path fill="#B33921" d="M717.473 519.02C727.115 518.359 727.943 522.568 724.667 531.083C722.511 531.958 720.679 531.855 718.74 530.664C716.583 527.253 717.322 523.208 717.473 519.02Z"/><path fill="#B33921" d="M720.222 496.901C727.012 496.819 730.81 500.564 724.877 506.072C718.898 506.121 714.279 502.077 720.222 496.901Z"/><path fill="#E0412C" d="M723.743 750.985C737.568 753.294 745.086 754.951 759.442 755.601C759.395 760.845 758.661 766.021 758.039 771.228C757.353 775.861 756.548 781.69 755.578 786.241C752.731 801.191 751.719 814.649 745.935 829.298C744.486 832.97 740.9 837.916 739.978 840.274C726.678 851.592 690.529 851.501 678.062 837.777C673.872 833.165 674.371 828.554 674.777 822.847C678.711 809.071 690.277 793.298 698.688 781.836C704.749 772.44 709.945 767.359 716.711 758.853L723.743 750.985Z"/><path fill="#E67045" d="M723.743 750.985C737.568 753.294 745.086 754.951 759.442 755.601C759.395 760.845 758.661 766.021 758.039 771.228C757.353 775.861 756.548 781.69 755.578 786.241C751.544 781.585 742.235 772.139 735.362 772.612C730.684 773.572 727.446 781.071 724.79 785.02C718.356 794.587 699.735 795.708 698.688 781.836C704.749 772.44 709.945 767.359 716.711 758.853L723.743 750.985Z"/><path fill="#E0412C" d="M723.743 750.985C737.568 753.294 745.086 754.951 759.442 755.601C759.395 760.845 758.661 766.021 758.039 771.228C753.74 766.892 747.318 768.033 741.621 766.65C734.054 764.813 723.6 762.412 716.711 758.853L723.743 750.985Z"/><path fill="#E67045" d="M674.777 822.847C688.376 818.434 697.237 825.973 709.403 829.993C719.243 833.244 732.37 831.877 739.978 840.274C726.678 851.592 690.529 851.501 678.062 837.777C673.872 833.165 674.371 828.554 674.777 822.847Z"/><path fill="#E0412C" d="M288.723 730.74C299.52 708.318 278.018 712.179 279.418 697.654C282.038 670.469 319.295 661.335 337.841 678.628C351.172 714.371 313.898 764.091 278.005 767.677L275.99 767.895C282.599 760.734 284.841 758.3 288.615 749.55C291.209 742.273 290.997 737.915 288.723 730.74Z"/><path fill="#E67045" d="M337.841 678.628C351.172 714.371 313.898 764.091 278.005 767.677L275.99 767.895C282.599 760.734 284.841 758.3 288.615 749.55C291.743 748.105 295.408 745.008 298.121 742.755C310.846 732.391 319.771 718.955 323.568 702.931C326.453 690.76 322.258 680.896 337.841 678.628Z"/><path fill="#E0412C" d="M767.866 756.171C775.606 755.779 783.338 755.225 791.055 754.508C801.981 777.35 812.892 815.143 803.756 839.582C794.287 851.977 759.331 858.511 750.568 843.482L750.636 842.049C751.913 837.684 754.986 831.688 756.574 826.511C760.553 813.539 762.545 801.949 764.337 788.589C765.478 782.063 766.18 775.82 766.875 769.243C767.318 764.728 767.671 760.72 767.866 756.171Z"/><path fill="#B33921" d="M750.636 842.049C751.351 842.843 752.347 843.359 753.383 842.733C769.655 832.911 786.702 829.2 803.756 839.582C794.287 851.977 759.331 858.511 750.568 843.482L750.636 842.049Z"/><path fill="#E67045" d="M766.875 769.243C771.993 768.15 779.335 766.846 783.938 764.752C783.787 773.12 782.239 780.746 776.199 786.987C773.321 789.961 767.725 791.017 764.337 788.589C765.478 782.063 766.18 775.82 766.875 769.243Z"/><path fill="#E0412C" d="M762.486 516.758C772.987 523.19 789.404 538.757 793.92 550.269C797.381 570.256 772.754 610.4 759.467 625.411C744.927 641.184 732.178 646.528 717.937 626.534C725.552 620.331 729.15 616.18 734.604 607.842C748.913 580.878 760.857 558.017 762.813 526.711C762.701 523.433 762.533 520.024 762.486 516.758Z"/><path fill="#B33921" d="M717.937 626.534C725.552 620.331 729.15 616.18 734.604 607.842C735.011 611.986 735.65 612.317 739.019 615.191C742.222 617.925 755.607 624.276 759.467 625.411C744.927 641.184 732.178 646.528 717.937 626.534Z"/><path fill="#E67045" d="M762.486 516.758C772.987 523.19 789.404 538.757 793.92 550.269C788.506 551.381 768.438 540.388 763.966 535.781C763.976 532.414 764.324 529.655 762.813 526.711C762.701 523.433 762.533 520.024 762.486 516.758Z"/><path fill="#B33921" d="M770.06 547.27C772.115 546.148 774.689 546.88 775.846 548.916C777.002 550.951 776.314 553.537 774.298 554.728C772.964 555.516 771.308 555.524 769.967 554.747C768.626 553.971 767.808 552.531 767.827 550.981C767.846 549.432 768.7 548.013 770.06 547.27Z"/><path fill="#B33921" d="M773.99 563.48C776.089 562.836 778.322 563.962 779.052 566.033C779.781 568.104 778.747 570.381 776.708 571.195C775.313 571.752 773.724 571.5 772.57 570.538C771.416 569.576 770.881 568.059 771.178 566.586C771.474 565.113 772.554 563.92 773.99 563.48Z"/><path fill="#E0412C" d="M370.004 773.006C365.005 757.659 372.391 735.635 380.311 722.227C394.324 698.5 417.515 688.018 443.236 681.569C441.546 685.464 440.296 688.776 438.865 692.782C435.331 706.256 434.603 714.437 436.282 728.359C437.007 731.716 437.711 735.148 438.487 738.487C422.071 736.535 417.681 741.531 407.78 753.095C402.805 751.716 400.169 751.55 394.999 751.196C385.378 753.891 380.789 758.561 374.386 766.065L370.004 773.006Z"/><path fill="#E67045" d="M370.004 773.006C365.005 757.659 372.391 735.635 380.311 722.227C394.324 698.5 417.515 688.018 443.236 681.569C441.546 685.464 440.296 688.776 438.865 692.782C414.67 701.375 392.929 716.968 382.409 740.74C380.097 745.963 374.944 760.805 374.386 766.065L370.004 773.006Z"/><path fill="#B33921" d="M436.282 728.359C437.007 731.716 437.711 735.148 438.487 738.487C422.071 736.535 417.681 741.531 407.78 753.095C402.805 751.716 400.169 751.55 394.999 751.196C396.653 750.715 399.197 750.729 401.01 750.635C402.856 748.254 404.414 745.587 406.464 743.091C414.902 732.817 423.995 731.181 436.282 728.359Z"/><path fill="#E0412C" d="M536.045 621.294C544.841 618.839 552.434 618.39 561.003 622.029C584.504 634.499 594.466 675.34 581.713 698.57C577.688 691.044 574.348 687.041 568.718 680.538C557.383 669.13 542.223 660.511 527.232 654.833C517.923 651.748 514.358 651.462 504.758 651.057C510.472 638.911 523.862 626.646 536.045 621.294Z"/><path fill="#E67045" d="M568.718 680.538C573.349 667.743 572.824 646.86 565.537 635.25C563.794 632.472 560.647 626.844 560.068 623.889C559.911 623.083 560.364 622.872 561.003 622.029C584.504 634.499 594.466 675.34 581.713 698.57C577.688 691.044 574.348 687.041 568.718 680.538Z"/><path fill="#B33921" d="M504.758 651.057C510.472 638.911 523.862 626.646 536.045 621.294C538.007 633.846 528.067 645.711 527.232 654.833C517.923 651.748 514.358 651.462 504.758 651.057Z"/><path fill="#E0412C" d="M800.999 569.842C808.403 581.204 821.82 599.927 818.954 614.351C818.139 618.453 816.1 621.166 813.48 624.228C801.226 637.784 794.375 644.711 779.701 655.682C763.115 668.478 753.581 666.405 746.169 646.57C758.137 639.644 759.546 638.135 769.022 628.119C778.384 618.197 787.316 601.64 793.403 589.477C796.309 583.109 798.612 576.426 800.999 569.842Z"/><path fill="#E67045" d="M800.999 569.842C808.403 581.204 821.82 599.927 818.954 614.351C818.139 618.453 816.1 621.166 813.48 624.228C799.711 623.855 794.57 600.076 793.403 589.477C796.309 583.109 798.612 576.426 800.999 569.842Z"/><path fill="#B33921" d="M746.169 646.57C758.137 639.644 759.546 638.135 769.022 628.119L768.932 628.638C768.112 633.119 766.016 633.416 768.179 638.12C770.267 642.661 775.13 653.567 779.701 655.682C763.115 668.478 753.581 666.405 746.169 646.57Z"/><defs><linearGradient id="gradient_2" gradientUnits="userSpaceOnUse" x1="634.54248" y1="779.76654" x2="712.35443" y2="780.12476"><stop offset="0" stop-color="#AF3520"/><stop offset="1" stop-color="#E84D39"/></linearGradient></defs><path fill="url(#gradient_2)" d="M708.044 743.092C710.759 744.116 712.507 746.254 714.569 748.321C695.539 766.713 677.742 793.345 666.834 817.43C659.483 815.448 655.25 813.826 648.691 810.153C640.62 804.539 636.695 798.899 633.442 789.8C634.067 788.507 635.856 784.965 636.552 783.923C646.049 769.704 692.527 746.641 708.044 743.092Z"/><path fill="#E67045" d="M322.073 375.649C348.601 374.356 366.322 385.886 370.261 412.799C335.937 407.368 317.597 407.305 283.465 411.159C286.589 401.191 291.084 392.276 299.141 385.275C307.014 379.436 312.35 377.469 322.073 375.649Z"/><path fill="#EAA280" d="M299.141 385.275C307.014 379.436 312.35 377.469 322.073 375.649C323.36 376.207 324.432 377.835 324.857 379.155C327.02 385.875 318.904 390.891 313.687 392.7C306.78 395.095 297.317 395.487 299.141 385.275Z"/><path fill="#FDFDFD" d="M297.966 418.295C303.853 417.673 316.422 417.074 320.073 422.706C319.954 427.312 310.128 426.555 306.957 426.527C307.869 431.046 309.793 435.3 312.583 438.97C324.212 454.152 348.017 449.984 355.685 433.043C357.484 429.068 357.725 424.09 358.144 419.72C362.326 420.484 366.528 421.143 370.743 421.695C370.156 427.603 369.246 430.615 367.257 436.221C364.815 441.582 362.035 445.831 357.947 450.105C348.814 459.562 336.271 464.964 323.125 465.102C310.98 465.267 299.223 460.458 290.363 452.072C281.705 443.878 281.552 430.881 281.45 419.606L297.966 418.295Z"/><path fill="#E0412C" d="M275.659 587.225C288.321 573.281 303.6 574.886 320.527 578.922C325.823 580.185 329.32 580 334.592 582.306C343.01 586.882 348.18 592.104 352.506 600.833C357.428 613.539 353.07 631.331 343.194 640.642C340.357 635.216 337.662 629.703 334.161 624.688C322.038 608.508 310.429 599.646 292.058 591.44C285.581 588.968 282.552 588.308 275.659 587.225Z"/><path fill="#E67045" d="M275.659 587.225C288.321 573.281 303.6 574.886 320.527 578.922C325.823 580.185 329.32 580 334.592 582.306C327.791 591.305 309.492 582.947 300.304 586.876C297.548 588.055 294.641 589.906 292.058 591.44C285.581 588.968 282.552 588.308 275.659 587.225Z"/><path fill="#B33921" d="M352.506 600.833C357.428 613.539 353.07 631.331 343.194 640.642C340.357 635.216 337.662 629.703 334.161 624.688C344.223 617.719 348.995 612.424 352.506 600.833Z"/><path fill="#E0412C" d="M526.996 574.137C532.613 568.606 537.018 565.375 545.421 565.27C553.021 565.175 560.395 570.404 563.474 577.259C563.786 588.545 568.188 591.834 572.679 601.892C576.435 610.305 578.218 615.461 579.04 624.544C574.236 620.65 570.631 617.732 565.309 614.443C553.573 609.723 546.478 609.303 534.396 612.63C530.196 614.27 527.827 615.51 523.878 617.701C524.048 614.43 525.431 599.467 523.992 597.202C520.014 590.942 517.35 591.224 521.413 582.546C523.071 579.005 524.468 577.099 526.996 574.137Z"/><path fill="#E67045" d="M565.309 614.443C563.809 609.331 562.45 604.191 560.821 599.11C559.254 594.224 554.99 583.29 558.306 578.612C560.048 577.392 561.268 577.5 563.474 577.259C563.786 588.545 568.188 591.834 572.679 601.892C576.435 610.305 578.218 615.461 579.04 624.544C574.236 620.65 570.631 617.732 565.309 614.443Z"/><path fill="#B33921" d="M523.878 617.701C524.048 614.43 525.431 599.467 523.992 597.202C520.014 590.942 517.35 591.224 521.413 582.546C523.071 579.005 524.468 577.099 526.996 574.137C527.842 578.226 529.626 581.085 531.022 584.922C533.402 591.459 532.416 598.984 532.361 605.81C532.342 609.514 531.636 610.782 534.396 612.63C530.196 614.27 527.827 615.51 523.878 617.701Z"/><path fill="#B33921" d="M717.885 718.594C730.653 720.882 743.756 722.564 756.737 722.631C766.507 722.682 770.161 719.584 779.412 724.417C777.77 733.702 780.013 736.682 782.452 745.474C781.448 746.545 781.501 746.204 779.624 746.429C758.718 747.747 738.975 747.051 719.23 739.237C708.422 734.961 713.646 725.655 717.885 718.594Z"/><path fill="#E0412C" d="M482.825 218.498C481.981 217.984 481.14 217.464 480.302 216.939C479.476 212.332 498.626 183.827 503.858 180.838C507.198 178.931 514.3 180.133 517.4 182.285C518.301 184.383 517.873 184.856 517.631 187.316C517.952 189.422 517.848 189.897 519.211 191.378C522.084 192.652 523.722 190.368 524.265 187.745C524.432 186.927 524.583 186.107 524.719 185.284C532.292 188.748 539.068 193.874 545.695 198.911C542.977 202.084 540.609 204.587 538.65 208.297C511.244 192.785 505.751 198.393 490.36 223.876C488.416 222.441 484.743 219.594 482.825 218.498Z"/><path fill="#E67045" d="M482.825 218.498C481.981 217.984 481.14 217.464 480.302 216.939C479.476 212.332 498.626 183.827 503.858 180.838C507.198 178.931 514.3 180.133 517.4 182.285C518.301 184.383 517.873 184.856 517.631 187.316C491.066 193.377 494.326 194.86 482.825 218.498Z"/><path fill="#E0412C" d="M815.016 678.695C817.412 676.484 819.547 675.197 822.42 673.667C821.655 682.843 821.497 696.499 815.728 703.963C810.182 708.291 806.28 709.659 799.567 711.983C791.104 714.822 774.97 719.82 772.597 707.064C772.01 703.911 772.39 700.453 772.585 697.246C783.38 695.958 787.155 694.146 796.737 689.449C803.623 685.897 808.659 682.951 815.016 678.695Z"/><path fill="#B33921" d="M772.585 697.246C783.38 695.958 787.155 694.146 796.737 689.449C795.91 691.198 795.392 691.822 795.71 693.721C796.791 695.46 797.266 695.727 798.865 697.086C799.713 702.484 799.308 706.732 799.567 711.983C791.104 714.822 774.97 719.82 772.597 707.064C772.01 703.911 772.39 700.453 772.585 697.246Z"/><path fill="#E67045" d="M815.016 678.695C817.412 676.484 819.547 675.197 822.42 673.667C821.655 682.843 821.497 696.499 815.728 703.963C810.256 698.774 812.303 685.049 815.016 678.695Z"/><path fill="#E0412C" d="M818.822 631.994C823.142 642.69 826.658 655.971 817.691 665.256C810.396 670.526 801.539 676.911 793.405 680.751C790.601 672.79 789.601 670.537 784.251 664.178C793.37 657.331 800.095 651.278 808.207 643.265C811.449 639.794 815.476 635.22 818.822 631.994Z"/><path fill="#E67045" d="M818.822 631.994C823.142 642.69 826.658 655.971 817.691 665.256C808.895 661.293 807.811 651.744 808.207 643.265C811.449 639.794 815.476 635.22 818.822 631.994Z"/><path fill="#B33921" d="M758.257 692.709C761.379 692.185 761.509 692.972 763.528 695.242C763.455 701.824 763.38 707.064 764.247 713.598C751.093 713.341 737.084 712.533 724.122 710.311C722.731 710.012 720.518 709.372 719.218 708.829C717.647 708.192 716.415 706.925 715.821 705.336C714.501 701.815 716.97 696.6 718.57 693.418C734.806 694.428 741.867 694.293 758.257 692.709Z"/><path fill="#E0412C" d="M346.528 192.355C350.085 189.706 359.777 181.817 363.232 187.641C368.824 197.067 372.162 210.833 373.933 221.68C371.837 222.106 368.597 222.659 366.665 223.326C366.311 223.435 365.623 223.664 365.272 223.699C362.699 223.958 359.919 209.911 354.944 206.831C346.619 201.677 340.167 213.163 334.94 214.484L334.4 213.96C332.729 212.985 330.037 210.62 328.448 209.309C332.836 204.288 337.725 199.209 342.984 195.129L346.528 192.355Z"/><path fill="#E67045" d="M346.528 192.355C350.085 189.706 359.777 181.817 363.232 187.641C368.824 197.067 372.162 210.833 373.933 221.68C371.837 222.106 368.597 222.659 366.665 223.326C365.509 216.272 362.624 204.098 361.049 196.701C355.681 196.438 350.853 195.922 346.528 192.355Z"/><path fill="#E67045" d="M342.984 195.129L344.096 195.986C344.423 202.551 334.721 207.596 334.45 213.823C334.433 213.869 334.416 213.915 334.4 213.96C332.729 212.985 330.037 210.62 328.448 209.309C332.836 204.288 337.725 199.209 342.984 195.129Z"/><path fill="#E0412C" d="M611.626 601.951C623.852 586.751 628.7 601.927 634.105 612.228C636.677 616.75 640.743 623.379 642.974 627.844C644.592 631.658 645.579 633.853 646.416 637.964C640.515 638.556 639.68 638.505 634.581 641.442C632.059 637.843 630.342 635.269 628.172 631.469C625.68 628.579 619.501 617.268 617.008 613.244C614.217 609.052 613.293 606.594 611.626 601.951Z"/><path fill="#B33921" d="M611.626 601.951C623.852 586.751 628.7 601.927 634.105 612.228C623.567 609.867 625.187 612.36 617.008 613.244C614.217 609.052 613.293 606.594 611.626 601.951Z"/><path fill="#E67045" d="M628.172 631.469C631.003 629.713 639.476 628.013 642.974 627.844C644.592 631.658 645.579 633.853 646.416 637.964C640.515 638.556 639.68 638.505 634.581 641.442C632.059 637.843 630.342 635.269 628.172 631.469Z"/><path fill="#B33921" d="M743.575 666.682C748.205 666.505 750.931 668.796 754.488 671.43C755.167 676.182 755.406 679.727 755.667 684.488C745.024 684.667 735.876 685.401 724.992 684.818C711.648 683.224 711.684 680.133 712.525 667.779C725.085 668.351 731.112 668.498 743.575 666.682Z"/><path fill="#B33921" d="M355.633 566.769C365.706 574.193 376.499 580.789 388.055 585.668C383.974 589.037 379.807 592.299 375.557 595.453C370.941 599.099 367.245 602.819 363.118 606.947C360.554 595.044 359.307 592.477 350.923 583.357L352.07 582.269C352.745 579.92 352.545 577.683 352.519 575.218C351.346 571.808 351.626 571.638 348.389 570.557C350.757 569.207 353.174 567.944 355.633 566.769Z"/><path fill="#E0412C" d="M352.519 575.218C362.185 585.96 363.26 587.821 375.557 595.453C370.941 599.099 367.245 602.819 363.118 606.947C360.554 595.044 359.307 592.477 350.923 583.357L352.07 582.269C352.745 579.92 352.545 577.683 352.519 575.218Z"/><path fill="#E0412C" d="M641.937 647.024C643.766 646.966 648.473 646.752 649.007 647.848C654.608 659.333 627.122 699.681 622.414 705.65L618.354 710.295C620.465 693.929 627.886 679.081 632.982 663.524C634.985 657.409 636.955 651.299 641.937 647.024Z"/><path fill="#E0412C" d="M445.67 321.531C446.723 315.983 454.479 280.064 457.083 277.794L458.385 278.201C461.202 280.124 464.042 282.013 466.905 283.868L460.192 324.612C459.141 331.18 444.089 329.16 445.67 321.531Z"/><path fill="#E67045" d="M445.67 321.531C446.723 315.983 454.479 280.064 457.083 277.794L458.385 278.201C458.088 280.675 456.61 286.994 456.784 288.437C458.379 301.622 464.731 308.904 451.631 319.345C450.143 320.532 447.674 321.772 445.67 321.531Z"/><path fill="#E0412C" d="M461.44 272.769C459.838 271.887 459.531 272.058 458.7 270.705C459.873 265.606 474.557 223.997 477.66 222.736L479.216 223.644C482.01 225.728 484.356 227.402 486.871 229.825C482.937 238.615 478.993 247.317 475.671 256.362C473.157 263.206 471.228 270.422 468.859 277.272C466.475 275.789 463.89 274.095 461.44 272.769Z"/><path fill="#E67045" d="M461.44 272.769C459.838 271.887 459.531 272.058 458.7 270.705C459.873 265.606 474.557 223.997 477.66 222.736L479.216 223.644C472.685 239.793 466.755 256.179 461.44 272.769Z"/><path fill="#B33921" d="M704.109 630.722L710.243 630.257C718.24 641.218 723.502 647.821 738.029 648.626C738.499 651.214 740.41 655.954 739.433 657.977L738.013 658.375C726.563 659.015 720.985 659.053 709.519 658.55C708.58 653.191 708.303 647.457 706.784 642.124C706.033 639.487 701.868 633.426 702.246 631.304L704.109 630.722Z"/><path fill="#E0412C" d="M673.993 650.081C675.616 650.114 678.011 650.394 677.954 652.494C677.614 665.017 670.517 680.378 665.739 691.776C663.353 697.47 658.665 705.193 655.639 709.668C654.541 710.76 654.626 710.767 653.225 711.374L652.676 710.88C651.44 701.504 665.459 663.348 669.828 652.927C670.639 650.993 672.103 650.644 673.993 650.081Z"/><path fill="#E0412C" d="M695.472 652.261C696.487 652.305 697.111 652.281 698.011 652.584C698.781 652.842 699.816 653.284 699.937 654.236C701.47 666.303 692.053 700.764 687.681 710.139C686.861 711.315 686.359 712.429 685.218 712.997C684.088 703.606 685.49 662.54 690.719 653.239C691.223 652.342 694.158 652.35 695.472 652.261Z"/><path fill="#B33921" d="M784.251 664.178C789.601 670.537 790.601 672.79 793.405 680.751C791.439 681.878 789.149 682.979 787.072 683.94C772.981 690.457 766.656 689.717 763.819 673.582C773.553 671.099 775.819 669.904 784.251 664.178Z"/><path fill="#CF4C39" d="M550.783 203.29C556.619 205.589 576.492 227.271 580.804 232.63L575.202 238.905C565.327 229.032 555.024 220.744 544.16 212.055C546.422 208.863 548.275 206.275 550.783 203.29Z"/><path fill="#B33921" d="M418.041 596.696C421.86 597.501 425.664 598.373 429.452 599.313C422.596 607.524 414.884 614.404 407.912 622.492C406.057 624.797 404.161 626.912 402.196 629.121C398.413 627.471 396.638 626.551 393.17 624.383L397.413 619.521C404.524 611.898 411.134 604.168 418.041 596.696Z"/><path fill="#CF4C39" d="M397.413 619.521C402.146 619.352 404.541 618.713 407.912 622.492C406.057 624.797 404.161 626.912 402.196 629.121C398.413 627.471 396.638 626.551 393.17 624.383L397.413 619.521Z"/><path fill="#E0412C" d="M594.937 608.608C598.339 618.26 604.171 627.386 605.896 637.376C600.346 637.456 598.902 638.183 593.869 640.426C586.935 627.445 588.777 623.578 585.628 610.935C587.856 607.94 591.616 608.519 594.937 608.608Z"/><path fill="#E67045" d="M582.945 240.313C584.204 239.019 584.283 238.472 585.736 238.16C591.804 243.462 614.643 274.411 617.823 283.509C617.989 283.983 617.576 284.25 617.138 284.76C615.549 284.997 615.552 285.154 614.176 284.421L612.798 282.523C611.327 281.007 609.496 278.662 608.175 276.928C599.282 265.26 589.745 254.71 579.779 243.978L582.945 240.313Z"/><path fill="#CF4C39" d="M579.779 243.978L582.945 240.313C584.507 243.729 589.597 248.807 592.116 251.866C598.316 259.398 610.949 273.301 612.798 282.523C611.327 281.007 609.496 278.662 608.175 276.928C599.282 265.26 589.745 254.71 579.779 243.978Z"/><path fill="#E67045" d="M368.698 229.947C370.678 229.477 372.934 228.882 374.911 228.522C376.266 235.518 379.48 260.096 379.448 267.43C378.406 268.592 377.994 268.323 376.106 268.744C374.498 269.161 373.458 269.61 371.849 269.25C371.534 268.324 370.97 261.433 370.677 259.417C369.352 250.301 367.125 241.119 365.944 232.058C366.513 230.572 366.768 230.893 368.698 229.947Z"/><path fill="#CF4C39" d="M376.106 268.744C374.498 269.161 373.458 269.61 371.849 269.25C371.534 268.324 370.97 261.433 370.677 259.417C369.352 250.301 367.125 241.119 365.944 232.058C366.513 230.572 366.768 230.893 368.698 229.947C370.482 243.276 372.493 255.728 376.106 268.744Z"/><path fill="#E67045" d="M321.475 217.777C323.186 215.864 322.677 215.829 324.738 215.295C326.888 215.908 328.571 218.205 330.202 219.955C326.633 224 321.559 230.49 318.207 234.019C316.395 237.537 303.933 252.378 301.216 257.35C300.72 258.258 299.19 258.053 298.228 257.983C296.723 256.879 297.094 257.577 296.832 255.963C301.182 245.299 314.392 227.15 321.475 217.777Z"/><path fill="#CF4C39" d="M321.475 217.777C323.186 215.864 322.677 215.829 324.738 215.295C326.888 215.908 328.571 218.205 330.202 219.955C326.633 224 321.559 230.49 318.207 234.019C318.508 232.031 318.805 230.603 319.453 228.691C320.479 225.659 324.927 220.407 324.475 217.389L323.699 216.927L321.475 217.777Z"/><path fill="#B33921" d="M663.537 604.388L672.833 599.013C677.075 605.698 682.25 616.442 686.916 624.181C682.909 625.754 681.414 629.086 680.518 633.091C674.951 623.487 668.825 614.108 663.537 604.388Z"/><path fill="#B33921" d="M806.793 719.646L807.482 719.798C808.386 722.171 806.028 728.732 804.801 731.098C801.936 736.622 798.338 744.847 791.091 740.945C787.835 737.589 785.736 731.099 788.968 727.113C793.049 722.08 800.788 720.647 806.793 719.646Z"/><path fill="#E0412C" d="M388.199 632.126C392.657 632.691 394.151 634.486 397.052 637.608C397.071 648.757 396.757 663.309 394.918 674.4L394.558 675.052L393.842 675.229C387.808 666.457 387.97 642.814 388.199 632.126Z"/><path fill="#E0412C" d="M602.52 646.493C611.183 645.812 609.016 650.098 606.957 656.451C604.711 663.384 600.872 670.375 597.373 676.793C596.957 677.589 596.879 677.602 596.304 678.306C595.906 670.942 595.987 662.788 593.845 655.51C596.675 651.055 597.913 649.29 602.52 646.493Z"/><path fill="#B33921" d="M440.001 600.925C443.525 600.917 445.858 601.36 449.333 601.915C445.027 608.825 436.918 620.678 431.912 626.989C429.998 628.172 425.388 626.972 424.464 624.904C426.192 620.417 436.139 607.849 439.545 601.752L440.001 600.925Z"/><defs><linearGradient id="gradient_3" gradientUnits="userSpaceOnUse" x1="372.59024" y1="292.18195" x2="382.2468" y2="290.07214"><stop offset="0" stop-color="#C84E3E"/><stop offset="1" stop-color="#E07551"/></linearGradient></defs><path fill="url(#gradient_3)" d="M378.84 275.604C379.774 275.575 379.307 275.468 380.209 276.038C381.453 281.191 382.615 299.426 383.119 305.688L376.625 307.185C376.439 307.233 375.613 307.201 375.383 307.198C374.336 304.63 372.955 281.421 372.583 276.947C374.611 276.451 376.786 276.034 378.84 275.604Z"/><path fill="#CF4C39" d="M419.332 633.873C427.319 634.588 428.744 637.251 429.56 645.115C430.495 654.142 430.562 663.31 430.767 672.382C425.568 669.327 419.763 639.881 419.332 633.873Z"/><path fill="#B33921" d="M465.551 603.434C469.378 603.486 471.793 603.592 475.576 604.047C472.166 611.674 468.028 618.955 463.219 625.787L461.985 626.584C459.079 626.712 456.966 625.942 454.151 625.192C458.67 617.815 461.912 611.234 465.551 603.434Z"/><path fill="#B33921" d="M650.005 620.638C647.01 617.826 640.316 607.202 642.054 603.766C647.891 592.224 659.202 613.783 660.903 616.814C656.771 617.625 653.176 617.887 650.005 620.638Z"/><path fill="#CF4C39" d="M451.225 634.087C459.862 633.196 460.337 639.607 461.743 646.771C462.469 650.474 463.354 657.83 462.44 661.371C460.629 661.888 461.469 661.924 459.831 661.547C454.848 656.283 451.959 641.132 451.225 634.087Z"/><path fill="#CF4C39" d="M440.93 329.427C449.517 336.791 452.984 336.733 463.25 332.823C462.332 336.071 462.095 336.752 460.526 339.802C453.722 347.961 444.244 345.741 440.142 336.186C440.305 333.669 440.553 331.899 440.93 329.427Z"/><path fill="#B33921" d="M578.319 593.002C582.003 591.346 584.097 590.458 587.932 589.286C590.332 595.366 592.593 602.338 594.937 608.608C591.616 608.519 587.856 607.94 585.628 610.935C584.825 607.296 580.033 597.066 578.319 593.002Z"/><path fill="#E0412C" d="M686.916 624.181C690.684 630.237 693.874 636.634 696.445 643.287C681.057 645.383 688.641 645.579 680.518 633.091C681.414 629.086 682.909 625.754 686.916 624.181Z"/><path fill="#E67045" d="M666.047 625.602C669.029 630.539 672.224 635.586 674.769 640.745C671.466 642.012 667.606 643.345 664.602 645.132L659.372 635.032C660.695 629.983 661.783 628.557 666.047 625.602Z"/><path fill="#E0412C" d="M650.005 620.638C653.176 617.887 656.771 617.625 660.903 616.814C662.53 619.711 664.209 622.866 666.047 625.602C661.783 628.557 660.695 629.983 659.372 635.032C655.832 630.286 653.091 625.677 650.005 620.638Z"/><path fill="#CF4C39" d="M383.976 313.307C384.474 313.914 386.196 323.745 386.651 325.789C384.093 325.729 381.254 325.523 378.675 325.386C374.492 323.761 375.49 318.687 375.484 314.757C378.8 313.965 380.578 313.688 383.976 313.307Z"/><defs><linearGradient id="gradient_4" gradientUnits="userSpaceOnUse" x1="289.77039" y1="282.28833" x2="282.4837" y2="274.9617"><stop offset="0" stop-color="#B06B51"/><stop offset="1" stop-color="#DD785F"/></linearGradient></defs><path fill="url(#gradient_4)" d="M292.808 262.766C293.952 263.551 295.068 264.589 296.132 265.505C290.192 274.946 284.466 284.52 278.958 294.22C278.622 294.787 278.342 295.079 277.927 295.59C277.788 292.036 290.242 267.427 292.808 262.766Z"/><path fill="#E67045" d="M348.389 570.557C351.626 571.638 351.346 571.808 352.519 575.218C352.545 577.683 352.745 579.92 352.07 582.269L350.923 583.357C346.049 578.843 343.677 577.396 337.808 574.158C341.736 572.985 344.591 572.063 348.389 570.557Z"/><path fill="#CF4C39" d="M633.254 311.403C630.451 307.241 621.062 294.862 620.557 291.048L621.063 290.093L621.946 289.866C625.618 294.422 631.167 305.378 634.209 311.073L633.254 311.403Z"/><path fill="#452A25" d="M634.209 311.073C634.973 312.341 635.684 313.128 635.554 314.555C634.19 313.833 634.154 313.049 633.254 311.403L634.209 311.073Z"/></svg>